{
	"asset":{
		"generator":"Khronos glTF Blender I/O v3.6.27",
		"version":"2.0"
	},
	"scene":0,
	"scenes":[
		{
			"name":"Scene",
			"nodes":[
				0,
				1,
				2,
				3
			]
		}
	],
	"nodes":[
		{
			"mesh":0,
			"name":"Curve",
			"rotation":[
				0.7094798684120178,
				-0.0059302919544279575,
				-0.005344512406736612,
				0.7046805620193481
			],
			"scale":[
				310.8406066894531,
				310.8406066894531,
				310.8406066894531
			],
			"translation":[
				-9.646747589111328,
				-12.14816665649414,
				-0.4702979028224945
			]
		},
		{
			"mesh":1,
			"name":"Curve.001",
			"rotation":[
				0.7094798684120178,
				-0.0059302919544279575,
				-0.005344512406736612,
				0.7046805620193481
			],
			"scale":[
				310.8406066894531,
				310.8406066894531,
				310.8406066894531
			],
			"translation":[
				-9.646747589111328,
				-12.14816665649414,
				-0.4702979028224945
			]
		},
		{
			"mesh":2,
			"name":"Curve.002",
			"rotation":[
				0.7094798684120178,
				-0.0059302919544279575,
				-0.005344512406736612,
				0.7046805620193481
			],
			"scale":[
				310.8406066894531,
				310.8406066894531,
				310.8406066894531
			],
			"translation":[
				-9.646747589111328,
				-12.14816665649414,
				-0.4702979028224945
			]
		},
		{
			"mesh":3,
			"name":"Curve.003",
			"rotation":[
				0.7094798684120178,
				-0.0059302919544279575,
				-0.005344512406736612,
				0.7046805620193481
			],
			"scale":[
				310.8406066894531,
				310.8406066894531,
				310.8406066894531
			],
			"translation":[
				-9.646747589111328,
				-12.14816665649414,
				-0.4702979028224945
			]
		}
	],
	"materials":[
		{
			"doubleSided":true,
			"name":"SVGMat.001",
			"pbrMetallicRoughness":{
				"baseColorFactor":[
					0,
					0.3094688057899475,
					0.0612461194396019,
					1
				],
				"metallicFactor":1,
				"roughnessFactor":0.2238806039094925
			}
		}
	],
	"meshes":[
		{
			"name":"Curve",
			"primitives":[
				{
					"attributes":{
						"POSITION":0,
						"NORMAL":1,
						"TEXCOORD_0":2
					},
					"indices":3,
					"material":0
				}
			]
		},
		{
			"name":"Curve.001",
			"primitives":[
				{
					"attributes":{
						"POSITION":4,
						"NORMAL":5,
						"TEXCOORD_0":6
					},
					"indices":7,
					"material":0
				}
			]
		},
		{
			"name":"Curve.002",
			"primitives":[
				{
					"attributes":{
						"POSITION":8,
						"NORMAL":9,
						"TEXCOORD_0":10
					},
					"indices":11,
					"material":0
				}
			]
		},
		{
			"name":"Curve.003",
			"primitives":[
				{
					"attributes":{
						"POSITION":12,
						"NORMAL":13,
						"TEXCOORD_0":14
					},
					"indices":15,
					"material":0
				}
			]
		}
	],
	"accessors":[
		{
			"bufferView":0,
			"componentType":5126,
			"count":4392,
			"max":[
				0.052761614322662354,
				0.0012000000569969416,
				-0.018713053315877914
			],
			"min":[
				0.008430379442870617,
				-0.0012000000569969416,
				-0.06226028501987457
			],
			"type":"VEC3"
		},
		{
			"bufferView":1,
			"componentType":5126,
			"count":4392,
			"type":"VEC3"
		},
		{
			"bufferView":2,
			"componentType":5126,
			"count":4392,
			"type":"VEC2"
		},
		{
			"bufferView":3,
			"componentType":5123,
			"count":22464,
			"type":"SCALAR"
		},
		{
			"bufferView":4,
			"componentType":5126,
			"count":8284,
			"max":[
				0.043674252927303314,
				0.0010000000474974513,
				-0.04469415917992592
			],
			"min":[
				0.01758388988673687,
				-0.0010000000474974513,
				-0.057473473250865936
			],
			"type":"VEC3"
		},
		{
			"bufferView":5,
			"componentType":5126,
			"count":8284,
			"type":"VEC3"
		},
		{
			"bufferView":6,
			"componentType":5126,
			"count":8284,
			"type":"VEC2"
		},
		{
			"bufferView":7,
			"componentType":5123,
			"count":24768,
			"type":"SCALAR"
		},
		{
			"bufferView":8,
			"componentType":5126,
			"count":8425,
			"max":[
				0.030454881489276886,
				0.0010000000474974513,
				-0.024557093158364296
			],
			"min":[
				0.012873474508523941,
				-0.0010000000474974513,
				-0.04740721732378006
			],
			"type":"VEC3"
		},
		{
			"bufferView":9,
			"componentType":5126,
			"count":8425,
			"type":"VEC3"
		},
		{
			"bufferView":10,
			"componentType":5126,
			"count":8425,
			"type":"VEC2"
		},
		{
			"bufferView":11,
			"componentType":5123,
			"count":25104,
			"type":"SCALAR"
		},
		{
			"bufferView":12,
			"componentType":5126,
			"count":8569,
			"max":[
				0.04838952794671059,
				0.0010000000474974513,
				-0.024558477103710175
			],
			"min":[
				0.03080003149807453,
				-0.0010000000474974513,
				-0.0473792739212513
			],
			"type":"VEC3"
		},
		{
			"bufferView":13,
			"componentType":5126,
			"count":8569,
			"type":"VEC3"
		},
		{
			"bufferView":14,
			"componentType":5126,
			"count":8569,
			"type":"VEC2"
		},
		{
			"bufferView":15,
			"componentType":5123,
			"count":25716,
			"type":"SCALAR"
		}
	],
	"bufferViews":[
		{
			"buffer":0,
			"byteLength":52704,
			"byteOffset":0,
			"target":34962
		},
		{
			"buffer":0,
			"byteLength":52704,
			"byteOffset":52704,
			"target":34962
		},
		{
			"buffer":0,
			"byteLength":35136,
			"byteOffset":105408,
			"target":34962
		},
		{
			"buffer":0,
			"byteLength":44928,
			"byteOffset":140544,
			"target":34963
		},
		{
			"buffer":0,
			"byteLength":99408,
			"byteOffset":185472,
			"target":34962
		},
		{
			"buffer":0,
			"byteLength":99408,
			"byteOffset":284880,
			"target":34962
		},
		{
			"buffer":0,
			"byteLength":66272,
			"byteOffset":384288,
			"target":34962
		},
		{
			"buffer":0,
			"byteLength":49536,
			"byteOffset":450560,
			"target":34963
		},
		{
			"buffer":0,
			"byteLength":101100,
			"byteOffset":500096,
			"target":34962
		},
		{
			"buffer":0,
			"byteLength":101100,
			"byteOffset":601196,
			"target":34962
		},
		{
			"buffer":0,
			"byteLength":67400,
			"byteOffset":702296,
			"target":34962
		},
		{
			"buffer":0,
			"byteLength":50208,
			"byteOffset":769696,
			"target":34963
		},
		{
			"buffer":0,
			"byteLength":102828,
			"byteOffset":819904,
			"target":34962
		},
		{
			"buffer":0,
			"byteLength":102828,
			"byteOffset":922732,
			"target":34962
		},
		{
			"buffer":0,
			"byteLength":68552,
			"byteOffset":1025560,
			"target":34962
		},
		{
			"buffer":0,
			"byteLength":51432,
			"byteOffset":1094112,
			"target":34963
		}
	],
	"buffers":[
		{
			"byteLength":1145544,
			"uri":"logoMatsu.bin"
		}
	]
}
